<svg data-v-5f228bbe="" viewBox="0 0 250 153" fill="none" xmlns="http://www.w3.org/2000/svg" class="cursor-pointer default-transition hover:opacity-80 main-logo main-logo"><g data-v-5f228bbe="" clip-path="url(#clip0)"><path data-v-5f228bbe="" d="M245.792 110.007L4.914 152.478c-2.522.443-4.564-1.235-4.564-3.757V48.214c0-2.521 2.042-4.921 4.564-5.364L245.792.378c2.522-.442 4.565 1.236 4.565 3.758v100.507c0 2.521-2.043 4.921-4.565 5.364z" fill="#000"></path><path data-v-5f228bbe="" d="M64.214 101.285c0 6.308-4.864 12.265-11.179 13.372l-23.414 4.128V67.393l23.493-4.143c6.307-1.114 11.1 3.135 11.1 9.45v28.585zm-5.629-26.907c0-4.793-3.114-6.442-7.907-5.6L35.25 71.5v41.207l15.428-2.722c4.793-.842 7.907-3.6 7.907-8.385V74.378zM77.514 110.343V58.95l5.628-.993v51.393l-5.628.993zM221.506 72.636c0 8.892-5.628 14.142-16.95 16.142-7.985 1.408-15.128 1.908-15.128 1.908v-5.472s8.364-.635 14.75-1.764c7.985-1.407 11.707-4.422 11.707-10.2v-2.814c0-3.729-1.829-6.065-6.993-5.765l-8.593.45c-6.464.308-11.1-3.214-11.1-9.75v-3.8c0-8.892 5.779-14.171 16.572-16.071 5.471-.964 9.5-1.143 13.228-1.493v5.471s-7.6.43-12.464 1.286c-7.986 1.407-11.707 4.422-11.707 10.2v2.665c0 3.72 1.821 6.064 6.993 5.757l8.664-.465c6.764-.357 11.021 3.229 11.021 9.765v3.95zM127.543 74.793c2.1-2.45 3.364-5.622 3.364-8.907v-4.943c0-6.307-4.564-10.6-11.25-9.422L97.05 55.507V106.9l23.871-4.207c6.693-1.179 11.25-7.079 11.25-13.386V83.38c.007-3.915-1.771-7.036-4.628-8.586zm-24.865-15.186l14.7-2.593c4.793-.843 7.908.964 7.908 5.75v3.422c0 4.792-2.886 7.5-7.679 8.35l-14.929 2.628V59.607zm23.872 29.85c0 4.793-3.114 7.693-7.907 8.543l-15.965 2.814v-18.55l16.193-2.857c4.793-.843 7.679.85 7.679 5.643v4.407zM174.071 66.585c2.1-2.45 3.364-5.62 3.364-8.907v-4.942c0-6.308-4.564-10.6-11.25-9.422L143.578 47.3v51.393l23.872-4.207c6.692-1.179 11.25-7.079 11.25-13.386V75.17c.007-3.914-1.779-7.036-4.629-8.586zm-24.864-15.178l14.7-2.593c4.785-.843 7.907.964 7.907 5.75v3.422c0 4.792-2.886 7.5-7.679 8.35l-14.928 2.628V51.407zm23.871 29.843c0 4.793-3.114 7.693-7.907 8.543l-15.964 2.814v-18.55L165.4 71.2c4.792-.843 7.678.85 7.678 5.643v4.407z" fill="#fff"></path></g><defs data-v-5f228bbe=""><clipPath data-v-5f228bbe="" id="clip0"><path data-v-5f228bbe="" fill="#fff" d="M0 0h250v152.857H0z"></path></clipPath></defs></svg>